<svg class="railroad-diagram" xmlns="http://www.w3.org/2000/svg" xmlns:xlink="http://www.w3.org/1999/xlink" width="457" height="71" viewBox="0 0 457 71">
<style>/* <![CDATA[ */svg.railroad-diagram {
    background-color: hsl(30,20%,95%);
}
svg.railroad-diagram path {
    stroke-width: 3;
    stroke: black;
    fill: rgba(0,0,0,0);
}
svg.railroad-diagram text {
    font: bold 14px monospace;
    text-anchor: middle;
}
svg.railroad-diagram text.label {
    text-anchor: start;
}
svg.railroad-diagram text.comment {
    font: italic 12px monospace;
}
svg.railroad-diagram g.non-terminal text {
    /*font-style: italic;*/
}
svg.railroad-diagram rect {
    stroke-width: 3;
    stroke: black;
    fill: hsl(120,100%,90%);
}
/* ]]> */</style><g transform="translate(.5 .5)">
<path d="M 20 21 v 20 m 10 -20 v 20 m -10 -10 h 20.5"></path>
<path d="M40 31h10"></path>
<g class="terminal">
<path d="M50 31h0"></path>
<path d="M94 31h0"></path>
<rect x="50" y="20" width="44" height="22" rx="10" ry="10"></rect>
<text x="72" y="35">SOL</text>
</g>
<path d="M94 31h10"></path>
<path d="M104 31h10"></path>
<g class="terminal">
<path d="M114 31h0"></path>
<path d="M174 31h0"></path>
<rect x="114" y="20" width="60" height="22" rx="10" ry="10"></rect>
<text x="144" y="35">SPACE</text>
</g>
<path d="M174 31h10"></path>
<path d="M184 31h10"></path>
<g>
<path d="M194 31h0"></path>
<path d="M342 31h0"></path>
<path d="M194 31h10"></path>
<g>
<path d="M204 31h0"></path>
<path d="M332 31h0"></path>
<path d="M204 31h10"></path>
<g class="terminal">
<path d="M214 31h0"></path>
<path d="M274 31h0"></path>
<rect x="214" y="20" width="60" height="22" rx="10" ry="10"></rect>
<text x="244" y="35">VALUE</text>
</g>
<path d="M274 31h10"></path>
<path d="M284 31h10"></path>
<g class="terminal">
<path d="M294 31h0"></path>
<path d="M322 31h0"></path>
<rect x="294" y="20" width="28" height="22" rx="10" ry="10"></rect>
<text x="308" y="35">,</text>
</g>
<path d="M322 31h10"></path>
</g>
<path d="M332 31h10"></path>
<path d="M204 31a10 10 0 0 0 -10 10v0a10 10 0 0 0 10 10"></path>
<g>
<path d="M204 51h128"></path>
</g>
<path d="M332 51a10 10 0 0 0 10 -10v0a10 10 0 0 0 -10 -10"></path>
</g>
<path d="M342 31h10"></path>
<path d="M352 31h10"></path>
<g class="terminal">
<path d="M362 31h0"></path>
<path d="M406 31h0"></path>
<rect x="362" y="20" width="44" height="22" rx="10" ry="10"></rect>
<text x="384" y="35">EOL</text>
</g>
<path d="M406 31h10"></path>
<path d="M 416 31 h 20 m -10 -10 v 20 m 10 -20 v 20"></path>
</g>
</svg>
