<?xml version="1.0" encoding="UTF-8"?>
<svg class="railroad-diagram" xmlns="http://www.w3.org/2000/svg" xmlns:xlink="http://www.w3.org/1999/xlink" width="865" height="188" viewBox="0 0 865 188">
<style>/* <![CDATA[ */svg.railroad-diagram {
    background-color: hsl(30,20%,95%);
}
svg.railroad-diagram path {
    stroke-width: 3;
    stroke: black;
    fill: rgba(0,0,0,0);
}
svg.railroad-diagram text {
    font: bold 14px monospace;
    text-anchor: middle;
}
svg.railroad-diagram text.label {
    text-anchor: start;
}
svg.railroad-diagram text.comment {
    font: italic 12px monospace;
}
svg.railroad-diagram g.non-terminal text {
    /*font-style: italic;*/
}
svg.railroad-diagram rect {
    stroke-width: 3;
    stroke: black;
    fill: hsl(120,100%,90%);
}
/* ]]> */</style><g transform="translate(.5 .5)">
<path d="M 20 59 v 20 m 10 -20 v 20 m -10 -10 h 20.5"></path>
<g>
<path d="M40 69h0"></path>
<path d="M108 69h0"></path>
<path d="M40 69h20"></path>
<g class="terminal">
<path d="M60 69h0"></path>
<path d="M88 69h0"></path>
<rect x="60" y="58" width="28" height="22" rx="10" ry="10"></rect>
<text x="74" y="73">-</text>
</g>
<path d="M88 69h20"></path>
<path d="M40 69a10 10 0 0 1 10 10v0a10 10 0 0 0 10 10"></path>
<g>
<path d="M60 89h28"></path>
</g>
<path d="M88 89a10 10 0 0 0 10 -10v0a10 10 0 0 1 10 -10"></path>
</g>
<g>
<path d="M108 69h0"></path>
<path d="M360 69h0"></path>
<path d="M108 69h20"></path>
<g class="terminal">
<path d="M128 69h92"></path>
<path d="M248 69h92"></path>
<rect x="220" y="58" width="28" height="22" rx="10" ry="10"></rect>
<text x="234" y="73">0</text>
</g>
<path d="M340 69h20"></path>
<path d="M108 69a10 10 0 0 1 10 10v10a10 10 0 0 0 10 10"></path>
<g>
<path d="M128 99h0"></path>
<path d="M340 99h0"></path>
<path d="M128 99h10"></path>
<g class="terminal">
<path d="M138 99h0"></path>
<path d="M230 99h0"></path>
<rect x="138" y="88" width="92" height="22" rx="10" ry="10"></rect>
<text x="184" y="103">Digit 1-9</text>
</g>
<path d="M230 99h10"></path>
<path d="M240 99h10"></path>
<g>
<path d="M250 99h0"></path>
<path d="M330 99h0"></path>
<path d="M250 99h10"></path>
<g class="terminal">
<path d="M260 99h0"></path>
<path d="M320 99h0"></path>
<rect x="260" y="88" width="60" height="22" rx="10" ry="10"></rect>
<text x="290" y="103">Digit</text>
</g>
<path d="M320 99h10"></path>
<path d="M260 99a10 10 0 0 0 -10 10v0a10 10 0 0 0 10 10"></path>
<g>
<path d="M260 119h60"></path>
</g>
<path d="M320 119a10 10 0 0 0 10 -10v0a10 10 0 0 0 -10 -10"></path>
</g>
<path d="M330 99h10"></path>
</g>
<path d="M340 99a10 10 0 0 0 10 -10v-10a10 10 0 0 1 10 -10"></path>
</g>
<g>
<path d="M360 69h0"></path>
<path d="M548 69h0"></path>
<path d="M360 69a10 10 0 0 0 10 -10v-8a10 10 0 0 1 10 -10"></path>
<g>
<path d="M380 41h0"></path>
<path d="M528 41h0"></path>
<path d="M380 41h10"></path>
<g class="terminal">
<path d="M390 41h0"></path>
<path d="M418 41h0"></path>
<rect x="390" y="30" width="28" height="22" rx="10" ry="10"></rect>
<text x="404" y="45">.</text>
</g>
<path d="M418 41h10"></path>
<path d="M428 41h10"></path>
<g>
<path d="M438 41h0"></path>
<path d="M518 41h0"></path>
<path d="M438 41h10"></path>
<g class="terminal">
<path d="M448 41h0"></path>
<path d="M508 41h0"></path>
<rect x="448" y="30" width="60" height="22" rx="10" ry="10"></rect>
<text x="478" y="45">Digit</text>
</g>
<path d="M508 41h10"></path>
<path d="M448 41a10 10 0 0 0 -10 10v0a10 10 0 0 0 10 10"></path>
<g>
<path d="M448 61h60"></path>
</g>
<path d="M508 61a10 10 0 0 0 10 -10v0a10 10 0 0 0 -10 -10"></path>
</g>
<path d="M518 41h10"></path>
</g>
<path d="M528 41a10 10 0 0 1 10 10v8a10 10 0 0 0 10 10"></path>
<path d="M360 69h20"></path>
<g>
<path d="M380 69h148"></path>
</g>
<path d="M528 69h20"></path>
</g>
<g>
<path d="M548 69h0"></path>
<path d="M824 69h0"></path>
<path d="M548 69h20"></path>
<g>
<path d="M568 69h236"></path>
</g>
<path d="M804 69h20"></path>
<path d="M548 69a10 10 0 0 1 10 10v28a10 10 0 0 0 10 10"></path>
<g>
<path d="M568 117h0"></path>
<path d="M804 117h0"></path>
<g>
<path d="M568 117h0"></path>
<path d="M636 117h0"></path>
<path d="M568 117h20"></path>
<g class="terminal">
<path d="M588 117h0"></path>
<path d="M616 117h0"></path>
<rect x="588" y="106" width="28" height="22" rx="10" ry="10"></rect>
<text x="602" y="121">e</text>
</g>
<path d="M616 117h20"></path>
<path d="M568 117a10 10 0 0 1 10 10v10a10 10 0 0 0 10 10"></path>
<g class="terminal">
<path d="M588 147h0"></path>
<path d="M616 147h0"></path>
<rect x="588" y="136" width="28" height="22" rx="10" ry="10"></rect>
<text x="602" y="151">E</text>
</g>
<path d="M616 147a10 10 0 0 0 10 -10v-10a10 10 0 0 1 10 -10"></path>
</g>
<g>
<path d="M636 117h0"></path>
<path d="M704 117h0"></path>
<path d="M636 117a10 10 0 0 0 10 -10v0a10 10 0 0 1 10 -10"></path>
<g class="terminal">
<path d="M656 97h0"></path>
<path d="M684 97h0"></path>
<rect x="656" y="86" width="28" height="22" rx="10" ry="10"></rect>
<text x="670" y="101">+</text>
</g>
<path d="M684 97a10 10 0 0 1 10 10v0a10 10 0 0 0 10 10"></path>
<path d="M636 117h20"></path>
<g>
<path d="M656 117h28"></path>
</g>
<path d="M684 117h20"></path>
<path d="M636 117a10 10 0 0 1 10 10v0a10 10 0 0 0 10 10"></path>
<g class="terminal">
<path d="M656 137h0"></path>
<path d="M684 137h0"></path>
<rect x="656" y="126" width="28" height="22" rx="10" ry="10"></rect>
<text x="670" y="141">-</text>
</g>
<path d="M684 137a10 10 0 0 0 10 -10v0a10 10 0 0 1 10 -10"></path>
</g>
<path d="M704 117h10"></path>
<g>
<path d="M714 117h0"></path>
<path d="M794 117h0"></path>
<path d="M714 117h10"></path>
<g class="terminal">
<path d="M724 117h0"></path>
<path d="M784 117h0"></path>
<rect x="724" y="106" width="60" height="22" rx="10" ry="10"></rect>
<text x="754" y="121">Digit</text>
</g>
<path d="M784 117h10"></path>
<path d="M724 117a10 10 0 0 0 -10 10v0a10 10 0 0 0 10 10"></path>
<g>
<path d="M724 137h60"></path>
</g>
<path d="M784 137a10 10 0 0 0 10 -10v0a10 10 0 0 0 -10 -10"></path>
</g>
<path d="M794 117h10"></path>
</g>
<path d="M804 117a10 10 0 0 0 10 -10v-28a10 10 0 0 1 10 -10"></path>
</g>
<path d="M 824 69 h 20 m -10 -10 v 20 m 10 -20 v 20"></path>
</g>
</svg>
