<svg class="railroad-diagram" xmlns="http://www.w3.org/2000/svg" xmlns:xlink="http://www.w3.org/1999/xlink" width="373" height="92" viewBox="0 0 373 92">
<style>/* <![CDATA[ */svg.railroad-diagram {
    background-color: hsl(30,20%,95%);
}
svg.railroad-diagram path {
    stroke-width: 3;
    stroke: black;
    fill: rgba(0,0,0,0);
}
svg.railroad-diagram text {
    font: bold 14px monospace;
    text-anchor: middle;
}
svg.railroad-diagram text.label {
    text-anchor: start;
}
svg.railroad-diagram text.comment {
    font: italic 12px monospace;
}
svg.railroad-diagram g.non-terminal text {
    /*font-style: italic;*/
}
svg.railroad-diagram rect {
    stroke-width: 3;
    stroke: black;
    fill: hsl(120,100%,90%);
}
/* ]]> */</style><g transform="translate(.5 .5)">
<path d="M 20 21 v 20 m 10 -20 v 20 m -10 -10 h 20.5"></path>
<g>
<path d="M40 31h0"></path>
<path d="M268 31h0"></path>
<path d="M40 31h20"></path>
<g class="terminal">
<path d="M60 31h0"></path>
<path d="M248 31h0"></path>
<rect x="60" y="20" width="188" height="22" rx="10" ry="10"></rect>
<text x="154" y="35">Any UNICODE character</text>
</g>
<path d="M248 31h20"></path>
<path d="M40 31a10 10 0 0 1 10 10v10a10 10 0 0 0 10 10"></path>
<g class="terminal">
<path d="M60 61h80"></path>
<path d="M168 61h80"></path>
<rect x="140" y="50" width="28" height="22" rx="10" ry="10"></rect>
<text x="154" y="65">\</text>
</g>
<path d="M248 61a10 10 0 0 0 10 -10v-10a10 10 0 0 1 10 -10"></path>
</g>
<path d="M268 31h10"></path>
<g class="terminal">
<path d="M278 31h0"></path>
<path d="M322 31h0"></path>
<rect x="278" y="20" width="44" height="22" rx="10" ry="10"></rect>
<text x="300" y="35">EOL</text>
</g>
<path d="M322 31h10"></path>
<path d="M 332 31 h 20 m -10 -10 v 20 m 10 -20 v 20"></path>
</g>
</svg>
