<?xml version="1.0" encoding="UTF-8"?>
<svg class="railroad-diagram" xmlns="http://www.w3.org/2000/svg" xmlns:xlink="http://www.w3.org/1999/xlink" width="253" height="222" viewBox="0 0 253 222">
<style>/* <![CDATA[ */svg.railroad-diagram {
    background-color: hsl(30,20%,95%);
}
svg.railroad-diagram path {
    stroke-width: 3;
    stroke: black;
    fill: rgba(0,0,0,0);
}
svg.railroad-diagram text {
    font: bold 14px monospace;
    text-anchor: middle;
}
svg.railroad-diagram text.label {
    text-anchor: start;
}
svg.railroad-diagram text.comment {
    font: italic 12px monospace;
}
svg.railroad-diagram g.non-terminal text {
    /*font-style: italic;*/
}
svg.railroad-diagram rect {
    stroke-width: 3;
    stroke: black;
    fill: hsl(120,100%,90%);
}
/* ]]> */</style><g transform="translate(.5 .5)">
<path d="M 20 111 v 20 m 10 -20 v 20 m -10 -10 h 20.5"></path>
<g>
<path d="M40 121h0"></path>
<path d="M148 121h0"></path>
<path d="M40 121a10 10 0 0 0 10 -10v-10a10 10 0 0 1 10 -10"></path>
<g class="terminal">
<path d="M60 91h0"></path>
<path d="M128 91h0"></path>
<rect x="60" y="80" width="68" height="22" rx="10" ry="10"></rect>
<text x="94" y="95">OBJECT</text>
</g>
<path d="M128 91a10 10 0 0 1 10 10v10a10 10 0 0 0 10 10"></path>
<path d="M40 121a10 10 0 0 0 10 -10v-40a10 10 0 0 1 10 -10"></path>
<g class="terminal">
<path d="M60 61h0"></path>
<path d="M128 61h0"></path>
<rect x="60" y="50" width="68" height="22" rx="10" ry="10"></rect>
<text x="94" y="65">NUMBER</text>
</g>
<path d="M128 61a10 10 0 0 1 10 10v40a10 10 0 0 0 10 10"></path>
<path d="M40 121a10 10 0 0 0 10 -10v-70a10 10 0 0 1 10 -10"></path>
<g class="terminal">
<path d="M60 31h0"></path>
<path d="M128 31h0"></path>
<rect x="60" y="20" width="68" height="22" rx="10" ry="10"></rect>
<text x="94" y="35">STRING</text>
</g>
<path d="M128 31a10 10 0 0 1 10 10v70a10 10 0 0 0 10 10"></path>
<path d="M40 121h20"></path>
<g class="terminal">
<path d="M60 121h4"></path>
<path d="M124 121h4"></path>
<rect x="64" y="110" width="60" height="22" rx="10" ry="10"></rect>
<text x="94" y="125">ARRAY</text>
</g>
<path d="M128 121h20"></path>
<path d="M40 121a10 10 0 0 1 10 10v10a10 10 0 0 0 10 10"></path>
<g class="terminal">
<path d="M60 151h8"></path>
<path d="M120 151h8"></path>
<rect x="68" y="140" width="52" height="22" rx="10" ry="10"></rect>
<text x="94" y="155">true</text>
</g>
<path d="M128 151a10 10 0 0 0 10 -10v-10a10 10 0 0 1 10 -10"></path>
<path d="M40 121a10 10 0 0 1 10 10v40a10 10 0 0 0 10 10"></path>
<g class="terminal">
<path d="M60 181h4"></path>
<path d="M124 181h4"></path>
<rect x="64" y="170" width="60" height="22" rx="10" ry="10"></rect>
<text x="94" y="185">false</text>
</g>
<path d="M128 181a10 10 0 0 0 10 -10v-40a10 10 0 0 1 10 -10"></path>
<path d="M40 121a10 10 0 0 1 10 10v59a10 10 0 0 0 10 10"></path>
<g>
<path d="M60 200h68"></path>
</g>
<path d="M128 200a10 10 0 0 0 10 -10v-59a10 10 0 0 1 10 -10"></path>
</g>
<path d="M148 121h10"></path>
<g class="terminal">
<path d="M158 121h0"></path>
<path d="M202 121h0"></path>
<rect x="158" y="110" width="44" height="22" rx="10" ry="10"></rect>
<text x="180" y="125">EOL</text>
</g>
<path d="M202 121h10"></path>
<path d="M 212 121 h 20 m -10 -10 v 20 m 10 -20 v 20"></path>
</g>
</svg>
